<?xml version="1.0" encoding="UTF-8"?>
<svg id="Capa_1" data-name="Capa 1" xmlns="http://www.w3.org/2000/svg" viewBox="0 0 281.75 52.49">
  <defs>
    <style>
      .cls-1 {
        fill: #666;
      }
    </style>
  </defs>
  <g>
    <path class="cls-1" d="M77.7,25.85h-25v24.21h28.64v1.93h-30.57V0h30.57V1.93h-28.64V23.92h25v1.93Z"/>
    <path class="cls-1" d="M115.41,48.92h.21L137.34,0h2.18V51.99h-1.93V4.75l-.21-.04-21.07,47.28h-1.54L93.24,3.68l-.21,.04V51.99h-1.93V0h2.68l21.64,48.92Z"/>
    <path class="cls-1" d="M153.8,51.99V0h13.68c5.38,0,9.56,1.11,12.53,3.32,2.98,2.21,4.46,5.55,4.46,10,0,2.9-.71,5.38-2.12,7.43-1.42,2.05-3.42,3.42-6.02,4.11l-.04,.21c3.07,.41,5.65,1.82,7.75,4.23s3.14,5.21,3.14,8.37c0,4.55-1.47,8.07-4.41,10.57-2.94,2.5-6.83,3.75-11.66,3.75h-17.32Zm1.93-27.6h13.14c4.5-.07,7.9-1.04,10.2-2.89s3.45-4.63,3.45-8.32-1.27-6.52-3.8-8.41c-2.54-1.89-6.28-2.84-11.23-2.84h-11.75V24.39Zm0,1.93v23.75h15.39c4.38,0,7.83-1.08,10.36-3.25,2.52-2.17,3.79-5.19,3.79-9.07,0-3.43-1.27-6.19-3.82-8.29-2.55-2.09-5.99-3.14-10.32-3.14h-15.39Z"/>
    <path class="cls-1" d="M199.47,27.6v24.43h-1.93V.04h16.93c5.48,0,9.69,1.18,12.64,3.55,2.95,2.37,4.43,5.83,4.43,10.37,0,2.93-.93,5.59-2.8,7.98s-4.42,3.95-7.66,4.66c1.36,3.16,13,25.43,13,25.43l-2.2,.46c-.74-1.56-12.89-25.11-12.89-25.11l-.38,.05c-.39,.05-.78,.09-1.18,.1-.43,.02-.8,.03-.97,.04-1.27,.03-.37,0-1.56,.03h-15.43Zm0-1.93h14.64c5.31,0,9.22-1.12,11.73-3.36,2.51-2.24,3.77-5.02,3.77-8.36,0-3.88-1.27-6.85-3.8-8.91-2.54-2.06-6.32-3.09-11.34-3.09h-15V25.67Z"/>
    <path class="cls-1" d="M273.82,36.46h-25.39l-5.82,15.53h-2.11L259.93,0h2.36l19.46,51.99h-2.11l-5.82-15.53Zm-24.68-1.93h23.96l-10.89-29.1-1-3.04h-.21l-.96,3.04-10.89,29.1Z"/>
  </g>
  <g>
    <path class="cls-1" d="M39.89,51.99h-6.88V28H6.84v23.99H0V.1H6.84V22.41h26.16l6.94,.02-.06,29.57Z"/>
    <rect class="cls-1" x="33.01" y=".1" width="6.88" height="15.43"/>
  </g>
</svg>